<svg version="1.2" xmlns="http://www.w3.org/2000/svg" viewBox="0 0 500 182" width="500" height="182">
	<title>REM-Me primary black-ai</title>
	<style>
		.s0 { fill: #ff0000 } 
		.s1 { fill: #000000 } 
	</style>
	<g id="Layer 1">
		<g id="&lt;Group&gt;">
			<g id="&lt;Group&gt;">
				<g id="&lt;Group&gt;">
					<path id="&lt;Path&gt;" class="s0" d="m101.4 177.7c-4.5-3.1-9-6.2-13.3-9.5-13.1-10-24.5-21.8-34.4-34.9-0.1-0.2-0.2-0.3-0.5-0.7 2.7-1.8 5.4-3.6 8.1-5.3 1.7-1 3.4-1.9 5.1-2.8 0.7-0.4 1.1-0.3 1.7 0.3 7.6 9.6 16.1 18.3 25.5 26.1 2.6 2.2 5.2 4.2 7.8 6.3q1.2-0.9 2.1-1.5c4.8 3.3 9.5 6.7 14.3 10.1-1.3 1-2.7 2.2-4.1 3.3-3.8 2.7-7.6 5.3-11.4 8-0.2 0.2-0.4 0.4-0.7 0.6q-0.1 0-0.2 0z"/>
					<path id="&lt;Path&gt;" class="s0" d="m101.5 72.4c2.8-2.8 5.8-5.2 9.5-7.1 0.2 2.5 0.5 4.7 0.6 7 0 3.5-0.1 6.9-0.2 10.4 0 0.4-0.2 0.9-0.5 1.1-3.6 2.2-6.7 5-9 8-1.8-1.6-3.5-3.1-5.3-4.6q-12.1-10.2-27.8-8.6c-2.1 0.2-3.7 1.3-5.3 2.5-6.9 5.3-9.8 12.3-8.9 21 0 0.4-0.2 1-0.5 1.1-4.6 3-9.3 5.8-13.9 8.7-0.1 0-0.2 0-0.3 0.1-4.9-12.3-2.6-30.6 11.4-42.6 14.3-12.2 36.9-11.3 50.2 3z"/>
					<path id="&lt;Path&gt;" class="s0" d="m122.3 139c2.5-2.7 4.9-5.3 7.2-8 5.8-6.6 11.1-13.6 15.9-21 4.6-7.1 3.9-17.3-1.5-24.5q-2.8-3.6-6.8-5.9c-0.4-0.2-0.9-0.8-0.9-1.2-0.4-5.5-0.7-11.1-1.1-16.6 0-0.1 0.1-0.3 0.1-0.5 3.5 0.3 6.7 1.7 9.8 3.3 22 12 27 41.4 10.4 60.1-2.3 2.6-4 5.8-6.2 8.5-3.8 4.7-7.6 9.3-11.5 13.9-0.3 0.3-1 0.6-1.4 0.4-4.9-2.2-9.6-5.1-14-8.5z"/>
				</g>
				<g id="&lt;Group&gt;">
					<path id="&lt;Path&gt;" class="s1" d="m4.6 171.4c0.6-1.9 1.2-3.9 1.8-5.8q15.6-46.9 61.9-64.3c0.4-0.1 0.8-0.2 1.1-0.3 1.8 5.3 3.5 10.5 5.3 15.9-10.2 3.5-19.5 8.9-27.8 16.1-8.2 7.2-14.7 15.7-19.7 25.8 1.8 0 3.5 0.1 5.1 0.1 10.9 0.1 21.5-1.9 31.6-6.1 0.7-0.2 1.1-0.2 1.7 0.4 3.9 3.7 7.9 7.5 11.8 11.2 0.2 0.2 0.3 0.3 0.5 0.6-5.4 2.7-10.9 4.9-16.6 6.6-18.4 5.5-36.9 5.6-55.4 0.5-0.4-0.1-0.8-0.1-1.3-0.2q0-0.2 0-0.5z"/>
					<path id="&lt;Path&gt;" class="s1" d="m198.4 171.9c-2.9 0.7-5.7 1.4-8.6 2q-44 8.2-80-18.4c-1.9-1.4-3.7-2.9-5.5-4.4 2-2.2 4-4.2 5.8-6.3 1.9-2 3.6-4.2 5.4-6.3 17.3 14.7 37.4 21.5 60.4 20.3-2.6-5.3-5.5-10.2-9.2-14.6-3.6-4.3-7.6-8.3-11.5-12.6 3-4.2 6.3-8.7 9.6-13.3 1 0.8 2.2 1.7 3.3 2.8 14.6 13.3 24.6 29.4 29.8 48.6 0.1 0.5 0.3 0.9 0.5 1.4q0 0.4 0 0.8z"/>
					<path id="&lt;Path&gt;" class="s1" d="m101.6 4.3c2.4 2.5 4.8 4.9 7 7.5 13.1 15.6 20.9 33.5 23.1 53.7 1.2 9.9 0.7 19.7-1.1 29.5q-0.1 0.3-0.1 0.7c-5.5-1.1-10.9-2.3-16.5-3.4 4-22.2-0.1-42.9-12.5-62.1-3.2 4.6-5.8 9.3-7.7 14.3-1.9 4.9-3.4 10-5.1 15.1-5.1-1.8-10.5-2.7-16.3-2.5 4.2-20.7 13.9-38.2 29-52.8q0.1 0 0.2 0z"/>
					<path id="&lt;Path&gt;" class="s1" d="m88 132.6c-10.4-15.3-16.1-31.9-17.3-50.2 4.2-0.4 8.2 0.1 12.2 1.4 1.5 0.5 3.1 0.9 4.4 1.9 1.5 1 0.9 2.9 1.2 4.4 1.8 9.9 5.1 19.3 10.2 28 0.2 0.4 0.2 1.1 0 1.5-3 4.7-6.6 9-10.7 13z"/>
					<path id="&lt;Path&gt;" class="s1" d="m93.7 95.9c17.5-1.3 34 1.7 50 9.1-2.7 5.1-6 9.6-9.3 14-4.3-1.4-8.3-2.8-12.5-4-6.7-1.8-13.6-2.6-20.6-2.5-1 0-1.5-0.2-1.9-1.1-2.4-4.9-4.3-10-5.7-15.5z"/>
					<path id="&lt;Path&gt;" class="s1" d="m99 150.6c-4.3-3.8-8.4-7.5-12.7-11.2 0.5-0.5 0.8-0.8 1.2-1.1 6.8-6 12.5-12.9 17-20.8 0.5-0.9 0.9-1.2 2-1.1 5.4 0.4 10.7 1.2 16.1 2.7-5.7 12.1-13.6 22.5-23.6 31.5z"/>
				</g>
			</g>
			<g id="&lt;Group&gt;">
				<g id="&lt;Group&gt;">
					<path id="&lt;Compound Path&gt;" fill-rule="evenodd" class="s1" d="m260.4 88.9h-14.7l-12.6-17.1h-5.6v17.1h-11.9v-46.5h20.1q4.1 0 7.1 0.4 3 0.5 5.5 2.1 2.7 1.5 4.2 4 1.6 2.5 1.6 6.3 0 5.1-2.4 8.4-2.4 3.2-6.9 5.4zm-18.7-32.3q0-1.8-0.7-3-0.7-1.3-2.5-2-1.2-0.5-2.8-0.6-1.6-0.1-3.8-0.1h-4.3v12.5h3.7q2.8 0 4.8-0.3 1.9-0.2 3.2-1.2 1.3-1 1.8-2.2 0.6-1.2 0.6-3.1z"/>
					<path id="&lt;Compound Path&gt;" class="s1" d="m299.3 88.9h-33.7v-46.5h33.7v9h-21.7v8h20.1v9h-20.1v11.5h21.7z"/>
					<path id="&lt;Compound Path&gt;" class="s1" d="m358.1 88.9h-11.9v-31.2l-8.6 20.3h-8.3l-8.6-20.3v31.2h-11.3v-46.5h13.9l10.5 23.3 10.4-23.3h13.9z"/>
					<path id="&lt;Compound Path&gt;" class="s1" d="m391.4 72.7h-23.9v-9h23.9z"/>
					<path id="&lt;Compound Path&gt;" class="s1" d="m449.5 88.9h-11.9v-31.2l-8.6 20.3h-8.3l-8.6-20.3v31.2h-11.4v-46.5h14l10.5 23.3 10.4-23.3h13.9z"/>
					<path id="&lt;Compound Path&gt;" fill-rule="evenodd" class="s1" d="m495.4 73.4h-25.8q0.3 4.2 3.1 6.3 2.9 2.2 8.6 2.2 3.5 0 6.9-1.2 3.3-1.3 5.2-2.8h1.3v9q-3.8 1.6-7.2 2.3-3.4 0.6-7.5 0.6-10.5 0-16.1-4.7-5.7-4.8-5.7-13.5 0-8.7 5.4-13.8 5.3-5.1 14.6-5.1 8.5 0 12.8 4.3 4.4 4.4 4.4 12.5zm-11.2-6.6q-0.1-3.5-1.8-5.3-1.6-1.8-5.1-1.8-3.3 0-5.4 1.7-2.1 1.7-2.3 5.4z"/>
				</g>
				<path id="&lt;Compound Path&gt;" class="s1" d="m227.2 139.6q-3.4 0-6.2-1-2.9-1-5-3-2-2-3.1-4.9-1.2-3-1.2-6.8 0-3.7 1.1-6.6 1.1-2.9 3.1-5 2-2 4.9-3.1 3-1.1 6.4-1.1 2 0 3.5 0.2 1.5 0.2 2.8 0.5 1.4 0.4 2.5 0.9 1.1 0.5 2 0.9v7.3h-0.9q-0.6-0.4-1.5-1.1-0.8-0.7-1.9-1.3-1.2-0.7-2.5-1.1-1.3-0.5-2.8-0.5-1.6 0-3.1 0.5-1.5 0.6-2.8 1.8-1.2 1.1-1.9 3-0.7 1.9-0.7 4.7 0 2.8 0.8 4.7 0.8 1.9 2 3 1.2 1.2 2.8 1.6 1.5 0.5 3 0.5 1.4 0 2.8-0.4 1.4-0.4 2.6-1.2 1-0.5 1.8-1.2 0.9-0.7 1.4-1.2h0.9v7.3q-1.2 0.5-2.2 0.9-1.1 0.5-2.2 0.8-1.5 0.4-2.8 0.7-1.3 0.2-3.6 0.2z"/>
				<path id="&lt;Compound Path&gt;" fill-rule="evenodd" class="s1" d="m257.2 136.6q-0.6 0.4-1.5 1.1-0.9 0.6-1.7 1-1 0.4-2.2 0.7-1.2 0.2-2.6 0.2-3.2 0-5.4-2-2.2-2-2.2-5.2 0-2.5 1.1-4.1 1.1-1.6 3.2-2.5 2-0.9 5-1.3 3.1-0.4 6.3-0.5v-0.2q0-1.9-1.6-2.6-1.5-0.7-4.5-0.7-1.8 0-3.9 0.6-2 0.7-2.9 1h-0.7v-5.5q1.1-0.3 3.8-0.7 2.6-0.4 5.2-0.4 6.3 0 9.1 1.9 2.7 1.9 2.7 6v15.6h-7.2zm0-3.6v-4.7q-1.5 0.1-3.3 0.3-1.7 0.2-2.6 0.5-1.1 0.4-1.7 1-0.6 0.7-0.6 1.8 0 0.7 0.2 1.1 0.1 0.5 0.6 0.9 0.4 0.4 1.1 0.6 0.7 0.2 2 0.2 1.1 0 2.3-0.5 1.1-0.4 2-1.2z"/>
				<path id="&lt;Compound Path&gt;" class="s1" d="m294.2 139h-7.4v-11.4q0-1.3-0.1-2.7-0.2-1.4-0.5-2-0.4-0.8-1.2-1.1-0.8-0.4-2.2-0.4-1 0-2 0.3-1.1 0.4-2.3 1.1v16.2h-7.3v-22.9h7.3v2.5q2-1.5 3.8-2.3 1.8-0.8 4-0.8 3.7 0 5.8 2.1 2.1 2.2 2.1 6.5z"/>
				<path id="&lt;Compound Path&gt;" fill-rule="evenodd" class="s1" d="m314.8 136.6q-0.6 0.4-1.5 1.1-0.9 0.6-1.6 1-1.1 0.4-2.3 0.7-1.1 0.2-2.5 0.2-3.3 0-5.5-2-2.2-2-2.2-5.2 0-2.5 1.1-4.1 1.2-1.6 3.2-2.5 2-0.9 5.1-1.3 3-0.4 6.2-0.5v-0.2q0-1.9-1.5-2.6-1.6-0.7-4.6-0.7-1.8 0-3.9 0.6-2 0.7-2.9 1h-0.7v-5.5q1.2-0.3 3.8-0.7 2.6-0.4 5.2-0.4 6.3 0 9.1 1.9 2.8 1.9 2.8 6v15.6h-7.3zm0-3.6v-4.7q-1.5 0.1-3.2 0.3-1.8 0.2-2.7 0.5-1.1 0.4-1.6 1-0.6 0.7-0.6 1.8 0 0.7 0.1 1.1 0.1 0.5 0.6 0.9 0.5 0.4 1.1 0.6 0.7 0.2 2.1 0.2 1.1 0 2.2-0.5 1.1-0.4 2-1.2z"/>
				<path id="&lt;Compound Path&gt;" fill-rule="evenodd" class="s1" d="m351.1 139h-7.4v-2.4q-1.9 1.6-3.5 2.3-1.7 0.7-3.8 0.7-4.2 0-6.7-3.2-2.5-3.2-2.5-8.7 0-2.9 0.8-5.1 0.9-2.3 2.3-3.9 1.4-1.5 3.4-2.4 2-0.8 3.9-0.8 2.1 0 3.4 0.4 1.3 0.5 2.7 1.1v-9.7h7.4zm-7.4-6.3v-11.3q-0.8-0.3-1.6-0.4-0.9-0.2-1.6-0.2-2.9 0-4.3 1.8-1.5 1.8-1.5 5 0 3.4 1.2 4.9 1.2 1.6 3.7 1.6 1 0 2.1-0.4 1.2-0.4 2-1z"/>
				<path id="&lt;Compound Path&gt;" fill-rule="evenodd" class="s1" d="m371.9 136.6q-0.6 0.4-1.5 1.1-0.9 0.6-1.7 1-1 0.4-2.2 0.7-1.2 0.2-2.6 0.2-3.2 0-5.4-2-2.2-2-2.2-5.2 0-2.5 1.1-4.1 1.1-1.6 3.2-2.5 2-0.9 5-1.3 3.1-0.4 6.3-0.5v-0.2q0-1.9-1.6-2.6-1.5-0.7-4.5-0.7-1.8 0-3.9 0.6-2 0.7-2.9 1h-0.7v-5.5q1.1-0.3 3.8-0.7 2.6-0.4 5.2-0.4 6.3 0 9.1 1.9 2.7 1.9 2.7 6v15.6h-7.2zm0-3.6v-4.7q-1.5 0.1-3.3 0.3-1.7 0.2-2.6 0.5-1.1 0.4-1.7 1-0.6 0.7-0.6 1.8 0 0.7 0.2 1.1 0.1 0.5 0.6 0.9 0.4 0.4 1.1 0.6 0.7 0.2 2 0.2 1.1 0 2.3-0.5 1.1-0.4 2-1.2z"/>
				<path id="&lt;Compound Path&gt;" class="s1" d="m422.4 139h-21.8v-30.4h7.8v24.5h14z"/>
				<path id="&lt;Compound Path&gt;" class="s1" d="m441.4 138.8q-1.2 0.3-2.5 0.5-1.3 0.1-3.3 0.1-4.2 0-6.3-1.7-2.1-1.7-2.1-5.9v-10.7h-3v-5h3v-6.5h7.3v6.5h6.9v5h-6.9v8.1q0 1.2 0.1 2.1 0 0.9 0.3 1.6 0.3 0.7 1 1.2 0.7 0.4 2.1 0.4 0.6 0 1.5-0.3 0.9-0.2 1.3-0.4h0.6z"/>
				<path id="&lt;Compound Path&gt;" fill-rule="evenodd" class="s1" d="m468 139h-7.3v-2.4q-1.9 1.6-3.6 2.3-1.6 0.7-3.8 0.7-4.2 0-6.7-3.2-2.5-3.2-2.5-8.7 0-2.9 0.9-5.1 0.8-2.3 2.3-3.9 1.4-1.5 3.4-2.4 1.9-0.8 3.9-0.8 2.1 0 3.4 0.4 1.3 0.5 2.7 1.1v-9.7h7.3zm-7.3-6.3v-11.3q-0.8-0.3-1.7-0.4-0.8-0.2-1.5-0.2-2.9 0-4.4 1.8-1.4 1.8-1.4 5 0 3.4 1.2 4.9 1.1 1.6 3.7 1.6 1 0 2.1-0.4 1.1-0.4 2-1z"/>
				<path id="&lt;Compound Path&gt;" class="s1" d="m482.8 139h-7.6v-8h7.6z"/>
			</g>
		</g>
	</g>
</svg>