<svg xmlns="http://www.w3.org/2000/svg" viewBox="0 0 500 500">
  <path fill="#FF0000" d="M250 437.5c-7.5 0-15-2.9-20.7-8.6L84.1 283.7c-56.5-56.5-56.5-148.5 0-205 27.4-27.4 63.9-42.5 102.7-42.5s75.3 15.1 102.7 42.5l10.9 10.9 10.9-10.9c27.4-27.4 63.9-42.5 102.7-42.5s75.3 15.1 102.7 42.5c56.5 56.5 56.5 148.5 0 205L370.7 428.9c-5.7 5.7-13.2 8.6-20.7 8.6zM186.8 86.2c-27.1 0-52.5 10.5-71.6 29.6-39.5 39.5-39.5 103.7 0 143.2L250 393.8l134.8-134.8c39.5-39.5 39.5-103.7 0-143.2-19.1-19.1-44.5-29.6-71.6-29.6s-52.5 10.5-71.6 29.6l-31.3 31.3c-5.7 5.7-13.2 8.6-20.7 8.6s-15-2.9-20.7-8.6l-31.3-31.3c-19.1-19.1-44.5-29.6-71.6-29.6z"/>
</svg>